<svg width="221" height="194" viewBox="0 0 221 194" fill="none" xmlns="http://www.w3.org/2000/svg">
<path d="M156.542 45.9375C156.542 66.8391 128.495 104.087 116.178 119.438C113.224 123.113 107.738 123.113 104.822 119.438C92.5054 104.087 64.4583 66.8391 64.4583 45.9375C64.4583 20.557 85.062 0 110.5 0C135.938 0 156.542 20.557 156.542 45.9375ZM159.611 76.7156C160.954 74.0742 162.182 71.4328 163.294 68.8297C163.486 68.3703 163.678 67.8727 163.87 67.4133L208.377 49.6508C214.439 47.2391 221 51.6797 221 58.1875V161.853C221 165.605 218.698 168.973 215.206 170.39L159.611 192.555V76.7156ZM52.7944 52.943C53.7153 58.3406 55.5569 63.7766 57.7056 68.8297C58.8182 71.4328 60.046 74.0742 61.3889 76.7156V172.955L12.6231 192.44C6.56094 194.852 0 190.411 0 183.903V80.2375C0 76.4859 2.30208 73.1172 5.79358 71.7008L52.8328 52.943H52.7944ZM125.77 127.094C131.104 120.433 139.468 109.599 147.333 97.6172V193.052L73.6667 172.036V97.6172C81.5321 109.599 89.8964 120.433 95.2295 127.094C103.095 136.894 117.905 136.894 125.77 127.094ZM110.5 58.1875C118.979 58.1875 125.847 51.3352 125.847 42.875C125.847 34.4148 118.979 27.5625 110.5 27.5625C102.021 27.5625 95.1528 34.4148 95.1528 42.875C95.1528 51.3352 102.021 58.1875 110.5 58.1875Z" fill="#102DA9"/>
</svg>
