<svg width="109" height="99" viewBox="0 0 109 99" style="color: rgb(9,87,243);" fill="currentColor" xmlns="http://www.w3.org/2000/svg">
<path d="M37.3156 1.04796C31.3713 2.25829 26.4582 6.97859 24.8811 13C24.2139 15.5719 24.2139 45.921 24.8811 48.735C25.5484 51.5793 26.7918 53.9092 28.7328 55.997C32.3115 59.8096 35.0107 60.9291 41.2279 61.2317L45.4434 61.4133L49.9926 69.7948C52.5098 74.4243 54.6328 78.2066 54.7541 78.2066C54.8451 78.2066 56.9984 74.4243 59.4852 69.8251L64.0648 61.4133L68.2803 61.2317C71.7984 61.0804 72.8295 60.8989 74.5582 60.2635C79.623 58.3269 83.3836 54.0303 84.6271 48.8258C85.2639 46.0723 85.2943 16.4494 84.6574 13.4236C84.0812 10.7609 82.7467 8.15866 80.8057 6.07084C78.8344 3.9225 77.1967 2.77268 74.5582 1.71364L72.4959 0.896669L55.5123 0.836152C46.1713 0.805894 37.9828 0.896669 37.3156 1.04796ZM58.9697 10.0952C60.9713 11.124 63.0943 13.2723 63.8525 15.0273C64.2164 15.9048 64.5803 17.5085 64.6713 18.7793L64.8533 21.0184H67.3098C70.009 21.0184 71.1008 21.4118 71.6164 22.5314C71.95 23.2273 73.3451 38.6893 73.7697 46.2539C73.9516 49.3402 73.9213 49.4007 73.1631 50.1874L72.3746 50.9742H54.7541H37.1336L36.4057 50.2177C35.4352 49.2797 35.4352 49.4612 36.618 34.8162C37.8008 20.2015 37.4066 21.2302 41.8344 21.079L44.7459 20.9579V19.1727C44.7459 14.997 47.8393 10.7306 51.7516 9.55054C53.5107 9.00589 57.4533 9.30848 58.9697 10.0952Z" fill="currentColor"/>
<path d="M53.541 14.6339C51.3574 15.2996 50.2049 16.873 50.1139 19.2635L50.0533 20.8671L54.6328 20.9579C59.1516 21.0184 59.2426 21.0184 59.3943 20.383C59.4853 19.9897 59.4246 19.0516 59.273 18.2347C58.8787 16.4797 57.6353 15.1181 56.0279 14.6642C54.7541 14.3313 54.6025 14.3313 53.541 14.6339Z" fill="currentColor"/>
<path d="M42.623 26.5254C42.623 26.586 42.2894 30.7616 41.8648 35.845C41.4402 40.9284 41.1066 45.1645 41.1066 45.2856C41.1066 45.4369 47.2631 45.5276 54.7541 45.5276C62.2754 45.5276 68.4017 45.4369 68.4017 45.2856C68.4017 45.1645 68.068 40.9284 67.6435 35.845C67.2189 30.7919 66.8853 26.586 66.8853 26.5557C66.8853 26.4952 66.4 26.4649 65.8238 26.4649H64.7623V28.7343V31.0037H62.1844C60.3344 31.0037 59.6066 30.8826 59.5762 30.6103C59.5762 30.4288 59.5762 29.4 59.6066 28.3409L59.6369 26.4649H54.7844H49.9016V28.7343V31.0037H47.3238H44.7459V28.7343V26.4649H43.6844C43.1082 26.4649 42.623 26.4952 42.623 26.5254Z" fill="currentColor"/>
<path d="M13.6599 84.803C13.5689 84.8937 13.5082 87.9498 13.5082 91.5808V98.1771H14.4181H15.3279V91.5506V84.924L14.5697 84.803C14.1755 84.7122 13.7509 84.7122 13.6599 84.803Z" fill="currentColor"/>
<path d="M21.3935 85.045C16.7533 87.0421 15.8435 93.0937 19.6345 96.5129C21.7877 98.4494 24.4869 98.752 26.5492 97.2694L27.459 96.6339V97.3904C27.459 98.0258 27.6107 98.1771 28.2172 98.1771H28.9754V94.6974V91.2177H26.7009C24.4869 91.2177 24.4263 91.248 24.4263 91.9742C24.4263 92.6701 24.5172 92.7306 25.9427 92.7306C27.3984 92.7306 27.459 92.7609 27.459 93.5778C27.459 95.3933 24.6386 96.9365 22.455 96.3314C21.2418 95.9985 19.7861 94.3948 19.2705 92.8516C18.6943 91.1572 19.3009 88.8878 20.6656 87.5564C21.6361 86.6184 21.909 86.5277 23.5164 86.5277C25.1238 86.5277 25.3968 86.6184 26.3369 87.5262C27.2468 88.4037 27.4894 88.4945 28.0353 88.2221C28.8845 87.738 28.8541 87.4657 27.641 86.2856C26.064 84.7122 23.3951 84.1675 21.3935 85.045Z" fill="currentColor"/>
<path d="M39.7115 84.7727L34.2222 84.8635L34.3738 85.6199C34.4951 86.3461 34.6164 86.3764 36.7394 86.3764H38.9836V92.2768V98.1771H39.8935H40.8033V92.2768V86.3764H43.0779H45.3525V85.4686C45.3525 84.9542 45.3222 84.5911 45.2918 84.6214C45.2312 84.6819 42.7443 84.7424 39.7115 84.7727Z" fill="currentColor"/>
<path d="M49.9016 84.7727C49.6287 84.8332 48.7189 86.6487 47.718 89.0391C46.7779 91.3085 45.5344 94.3041 44.9279 95.6657L43.8664 98.1771H44.8672C45.8074 98.1771 45.8984 98.0863 46.6869 96.0893L47.5361 94.0317L50.2049 93.9712L52.8738 93.9107L53.7533 96.0288C54.5721 98.0561 54.6631 98.1771 55.6033 98.1771H56.5738L56.1189 97.0273C52.6008 88.4945 50.9934 84.8937 50.6902 84.803C50.5082 84.7122 50.1443 84.7122 49.9016 84.7727ZM51.3877 89.9166C51.9033 91.2177 52.3279 92.3978 52.3279 92.5188C52.3279 92.6701 51.3574 92.7306 50.2049 92.6701C48.4459 92.6096 48.1123 92.5188 48.2336 92.1255C49.0828 89.9166 50.0836 87.5867 50.2352 87.5867C50.3566 87.5867 50.8721 88.6458 51.3877 89.9166Z" fill="currentColor"/>
<path d="M76.0443 84.9542C75.741 85.3173 70.5246 97.7232 70.5246 98.0561C70.5246 98.1468 70.9492 98.1771 71.4648 98.1166C72.3139 98.0258 72.4959 97.814 73.1328 96.2406C73.5271 95.242 73.9213 94.3646 74.0123 94.304C74.2246 94.0922 78.3492 93.9712 79.0164 94.1527C79.3803 94.2435 79.8656 95.0302 80.3205 96.1498C80.9877 97.8443 81.1697 98.0258 82.0189 98.1166C82.5344 98.1771 82.959 98.1468 82.959 98.0561C82.959 97.693 77.7426 85.3173 77.4697 85.045C77.0754 84.5911 76.3475 84.5609 76.0443 84.9542ZM77.773 89.7048C78.2885 90.9454 78.7131 92.1254 78.7131 92.307C78.7131 92.6701 75.2254 92.6701 74.8615 92.3373C74.7705 92.2162 75.1344 91.0664 75.6803 89.7048C76.2566 88.3734 76.7115 87.3144 76.7721 87.3749C76.8025 87.4051 77.2574 88.4642 77.773 89.7048Z" fill="currentColor"/>
<path d="M81.7459 84.8332C81.7459 84.9542 82.9287 87.8288 84.3541 91.2177C85.7795 94.6369 87.023 97.6022 87.1139 97.814C87.2049 98.0258 87.6295 98.1771 88.0238 98.1166C88.691 98.0258 89.0549 97.3299 91.4812 91.5203C92.9672 87.9498 94.1803 84.9542 94.1803 84.8635C94.1803 84.7727 93.7861 84.6819 93.3008 84.7122C92.4213 84.7122 92.3303 84.8635 90.2074 90.1284C88.509 94.2133 87.9328 95.3933 87.7508 94.9697C87.5992 94.6369 86.6287 92.2767 85.5672 89.7048C83.7476 85.2568 83.6262 85.0147 82.7164 84.8332C82.1705 84.7122 81.7459 84.7122 81.7459 84.8332Z" fill="currentColor"/>
<path d="M95.727 84.803C95.4844 84.8937 95.3934 86.8303 95.3934 91.5506V98.1771H96.3033H97.2131L97.2738 93.3358L97.3647 88.4945L99.4877 92.1255C100.852 94.4251 101.793 95.7565 102.126 95.7565C102.429 95.7565 103.37 94.4554 104.765 92.0347L106.918 88.3432V93.245V98.1771H107.828H108.738V91.49V84.8332L107.798 84.924C106.918 85.0148 106.645 85.3476 104.522 89.0089C103.279 91.2177 102.157 93.0332 102.066 93.0332C101.975 93.0332 100.852 91.1269 99.5484 88.797C97.2131 84.6214 97.0008 84.3793 95.727 84.803Z" fill="currentColor"/>
<path d="M0.467224 91.5201V98.1769H3.28772C6.77542 98.1769 8.07952 97.8138 9.56558 96.4825C11.7189 94.5157 12.2648 90.8242 10.8394 88.0102C9.56558 85.529 8.04919 84.8633 3.65165 84.8633H0.467224V91.5201ZM7.44263 86.9209C8.74673 87.5563 9.86886 89.6138 9.86886 91.3688C9.86886 92.9725 8.74673 95.1511 7.56395 95.8168C6.95739 96.1799 5.86558 96.3917 4.53116 96.4522L2.43854 96.5127L2.34755 91.4293L2.2869 86.3762H4.31886C5.68362 86.3762 6.74509 86.5578 7.44263 86.9209Z" fill="currentColor"/>
<path d="M31.0984 91.5203V98.1771H32.0082H32.9181V91.5203V84.8635H32.0082H31.0984V91.5203Z" fill="currentColor"/>
<path d="M57.7869 91.5203V98.1771H62.4574H67.1279L66.9156 97.3299L66.7033 96.5129L63.2156 96.4524L59.7582 96.4221L59.6673 90.6428L59.6066 84.8635H58.6968H57.7869V91.5203Z" fill="currentColor"/>
</svg>
