<svg width="195" height="174" viewBox="0 0 195 174" fill="none" xmlns="http://www.w3.org/2000/svg">
<path d="M49.6742 1.71408C48.4225 2.25002 46.9549 3.24533 46.3506 3.93439C44.8398 5.73361 2.02109 71.5008 1.41679 73.0703C0.985152 74.1039 0.85566 79.3484 0.812496 94.7375V115.103L6.42382 132.636C9.53164 142.321 12.4668 151.355 12.9416 152.772L13.8049 155.375H36.6387H59.5156V139.948C59.5156 131.181 59.2998 123.87 59.084 122.913C58.1344 119.314 56.8826 117.783 49.5016 111.122L42.25 104.576V84.9375C42.25 70.6586 42.1205 64.8781 41.732 63.7297C40.6098 60.4375 35.8617 57.375 31.8906 57.375C27.9195 57.375 23.1715 60.4375 22.0492 63.7297C21.6607 64.8781 21.5312 70.5055 21.5312 84.325V103.313H18.0781H14.5818L14.7113 83.1L14.8408 62.9258L16.2221 60.3609C18.0781 56.8773 20.5816 54.5805 24.2937 52.9344C28.1353 51.25 32.1064 50.8672 35.9912 51.7477C37.3725 52.0922 38.5811 52.3219 38.5811 52.2836C38.6242 52.2453 44.3219 43.4789 51.2281 32.8367C65.0838 11.5141 65.2996 11.1313 64.091 7.41798C62.235 1.90549 55.415 -0.812485 49.6742 1.71408Z" fill="#102DA9"/>
<path d="M137.254 1.2547C132.549 2.74767 129.485 7.68594 130.736 11.8586C131.038 12.7774 136.909 22.2711 143.815 32.9516C153.311 47.5367 156.592 52.3219 157.066 52.1688C157.412 52.0539 158.922 51.7477 160.433 51.518C168.937 50.1781 177.526 55.0781 179.728 62.543C180.289 64.457 180.375 67.9024 180.375 84.057V103.313H176.922H173.469V84.325C173.469 70.5055 173.339 64.8781 172.951 63.7297C171.829 60.4375 167.08 57.375 163.109 57.375C159.138 57.375 154.39 60.4375 153.268 63.7297C152.879 64.8781 152.75 70.6586 152.75 84.9375V104.576L145.498 111.122C138.117 117.783 136.866 119.314 135.916 122.913C135.7 123.87 135.484 131.181 135.484 139.948V155.375H158.361H181.195L182.058 152.81C182.533 151.355 185.468 142.283 188.576 132.636L194.188 115.065V94.7375C194.144 79.3484 194.015 74.1039 193.583 73.0703C192.979 71.5008 150.16 5.73361 148.649 3.93439C146.362 1.2547 141.096 0.0296936 137.254 1.2547Z" fill="#102DA9"/>
<path d="M90.8096 42.4837C89.3852 42.6751 86.8816 43.0962 85.1982 43.4407C81.7451 44.1681 74.5367 46.6181 74.7957 47.0009C74.882 47.1157 76.4359 49.5274 78.292 52.322C80.925 56.3415 81.7883 57.3751 82.3494 57.1454C84.4645 56.3798 89.6873 55.0399 91.6297 54.772L93.8311 54.504L93.9605 48.2642C94.0037 44.8571 93.9174 42.1009 93.7447 42.1009C93.5289 42.1392 92.234 42.2923 90.8096 42.4837Z" fill="#102DA9"/>
<path d="M101.039 48.3023L101.169 54.5039L103.37 54.7719C104.579 54.925 107.212 55.5375 109.197 56.1117C111.183 56.6859 112.996 57.1453 113.169 57.1836C113.341 57.1836 115.068 54.8484 116.924 52.0156L120.377 46.8477L118.089 45.9672C114.55 44.5508 110.104 43.3641 106.564 42.8664C104.795 42.6367 102.809 42.3305 102.119 42.2539L100.953 42.0625L101.039 48.3023Z" fill="#102DA9"/>
<path d="M65.6881 51.8626C64.3068 52.8579 62.4508 54.2743 61.5012 55.0399C59.6883 56.5329 54.7676 61.854 54.7676 62.3134C54.7676 62.4665 57.4006 63.9212 60.5947 65.5673L66.4219 68.5532L67.5873 67.2517C69.2275 65.4524 72.4217 62.6962 74.1482 61.5095L75.6158 60.5142L72.2059 55.3079C70.3498 52.4368 68.6664 50.1017 68.4937 50.1017C68.3211 50.1017 67.0693 50.9056 65.6881 51.8626Z" fill="#102DA9"/>
<path d="M122.794 55.2696L119.427 60.4375L120.895 61.4711C122.708 62.811 125.902 65.6438 127.413 67.2516L128.578 68.5149L134.405 65.6055C137.599 63.9594 140.232 62.5047 140.232 62.3516C140.232 61.8157 135.355 56.5711 133.283 54.8485C131.038 52.9727 126.895 50.1016 126.463 50.1016C126.29 50.1016 124.65 52.4368 122.794 55.2696Z" fill="#102DA9"/>
<path d="M92.0613 60.8202C88.9535 61.3179 84.5508 62.7726 81.6588 64.3038C78.292 66.0647 72.6375 71.1561 70.6088 74.2186C66.0334 81.2241 65.2564 90.2202 68.5801 98.0296C70.9973 103.733 77.1266 109.705 83.3853 112.462C88.7377 114.797 91.5865 115.371 97.9316 115.333C102.55 115.294 103.845 115.141 106.78 114.299C111.744 112.844 115.327 110.854 119.298 107.332C123.269 103.81 125.513 100.633 127.154 96.2304C128.103 93.6272 128.276 92.4788 128.319 88.3827C128.362 82.7554 127.715 80.2671 125.039 75.3671C122.492 70.7733 116.967 65.8733 111.744 63.5765C109.715 62.696 106.91 61.7007 105.485 61.3561C102.334 60.6288 95.0828 60.3608 92.0613 60.8202ZM100.953 71.5007C100.953 73.2233 101.039 73.4147 102.248 73.8358C104.061 74.4866 106.737 77.2811 107.341 79.1186C108.291 81.8749 108.248 81.8749 104.406 81.8749C101.601 81.8749 100.953 81.7601 100.953 81.3007C100.953 80.2671 98.9244 78.8124 97.5 78.8124C95.7303 78.8124 94.0469 80.3054 94.0469 81.8749C94.0469 83.4827 95.7303 84.9374 97.5432 84.9374C102.852 84.9374 107.859 89.4163 107.859 94.1249C107.859 97.2257 105.183 101.092 102.248 102.164C101.039 102.585 100.953 102.776 100.953 104.499V106.375H97.5H94.0469V104.499C94.0469 102.776 93.9605 102.585 92.7519 102.164C90.9391 101.513 88.2629 98.7186 87.6586 96.8811C86.709 94.1249 86.7521 94.1249 90.5937 94.1249C93.3994 94.1249 94.0469 94.2397 94.0469 94.6991C94.0469 95.7327 96.0756 97.1874 97.5 97.1874C99.2697 97.1874 100.953 95.6944 100.953 94.1249C100.953 92.5171 99.2697 91.0624 97.4568 91.0624C92.1477 91.0624 87.1406 86.5835 87.1406 81.8749C87.1406 78.7741 89.8168 74.9077 92.7519 73.8358C93.9605 73.4147 94.0469 73.2233 94.0469 71.5007V69.6249H97.5H100.953V71.5007Z" fill="#102DA9"/>
<path d="M50.0627 69.5867C49.2426 71.2711 49.1562 72.1898 49.1562 78.2V84.9375H54.3359C58.1344 84.9375 59.6019 84.8227 59.6883 84.4398C59.7746 84.2102 60.0768 82.8703 60.3789 81.4922C60.8105 79.3484 61.6738 76.7836 62.7529 74.525C63.0119 73.9125 62.4076 73.5297 52.9978 68.7062L51.0123 67.7109L50.0627 69.5867Z" fill="#102DA9"/>
<path d="M138.074 70.7735C134.88 72.4196 132.247 73.9125 132.247 74.104C132.29 74.2571 132.808 75.8649 133.456 77.6258C134.103 79.3868 134.794 81.7219 134.966 82.7938L135.269 84.7461L140.578 84.861L145.844 84.9758V78.1618C145.844 71.9219 145.757 71.1946 144.851 69.5485L143.901 67.7493L138.074 70.7735Z" fill="#102DA9"/>
<path d="M49.1562 96.5368V102.011L51.7461 104.27C54.3359 106.528 54.3359 106.528 55.5014 105.954C62.7098 102.279 63.0119 102.088 62.7098 101.475C61.8465 99.561 60.3357 94.929 60.0336 93.2063L59.7314 91.254L54.4223 91.1391L49.1562 91.0243V96.5368Z" fill="#102DA9"/>
<path d="M135.312 91.5219C135.182 91.7898 135.01 92.7469 134.88 93.6273C134.621 95.082 133.11 99.7141 132.29 101.437C132.031 101.934 132.895 102.547 136.132 104.231C138.42 105.418 140.405 106.375 140.578 106.375C140.75 106.375 142.002 105.38 143.383 104.155L145.844 101.934V96.4984V91.0625H140.664C136.866 91.0625 135.398 91.1773 135.312 91.5219Z" fill="#102DA9"/>
<path d="M62.8393 109.284L59.5156 111.007L61.199 112.998C63.7889 116.098 65.4723 119.544 66.206 123.334C66.5082 125.018 68.3643 126.434 69.0549 125.477C71.2994 122.453 75.4863 115.448 75.2273 115.218C71.2131 112.309 69.7887 111.122 68.3643 109.514C67.4146 108.442 66.5514 107.562 66.4219 107.562C66.2924 107.523 64.6953 108.327 62.8393 109.284Z" fill="#102DA9"/>
<path d="M128.146 107.83C128.146 108.213 122.751 113.227 120.895 114.529L119.427 115.563L122.492 120.233C126.679 126.702 126.161 126.128 127.456 125.401C128.146 124.98 128.621 124.252 128.794 123.334C129.528 119.544 131.211 116.098 133.801 112.998L135.484 111.007L132.161 109.246C128.751 107.485 128.146 107.294 128.146 107.83Z" fill="#102DA9"/>
<path d="M79.7596 121.381C78.7668 122.912 77.2129 125.286 76.3064 126.664L74.623 129.152L75.6158 129.573C78.9394 131.105 86.709 133.019 92.4498 133.708L94.0469 133.899L93.9605 127.698L93.8311 121.496L91.6297 121.228C89.6873 120.96 84.4644 119.62 82.3062 118.855C81.7451 118.625 81.2271 119.161 79.7596 121.381Z" fill="#102DA9"/>
<path d="M109.284 119.85C107.341 120.424 104.708 121.037 103.457 121.228L101.169 121.496L101.039 127.698L100.953 133.899L102.55 133.708C106.78 133.21 111.226 132.291 114.679 131.219C121.111 129.191 120.852 129.956 116.967 123.984C115.111 121.152 113.384 118.816 113.212 118.778C112.996 118.778 111.226 119.237 109.284 119.85Z" fill="#102DA9"/>
<path d="M0.812496 167.625V173.75H35.3437H69.875V167.625V161.5H35.3437H0.812496V167.625Z" fill="#102DA9"/>
<path d="M125.125 167.625V173.75H159.656H194.188V167.625V161.5H159.656H125.125V167.625Z" fill="#102DA9"/>
</svg>
