<svg width="221" height="209" viewBox="0 0 221 209" fill="none" xmlns="http://www.w3.org/2000/svg">
<path d="M154.053 0.449013C142.398 1.18378 130.571 5.55155 120.903 12.6951C109.68 20.9816 102.169 31.9623 98.5436 45.5555C97.4213 49.7191 97.335 50.5355 97.335 58.7812C97.335 67.027 97.4213 67.8434 98.5436 72.007C100.831 80.6609 104.543 87.8861 110.025 94.5807C131.046 120.175 169.764 124.788 196.699 104.908C208.008 96.5809 215.518 85.6002 219.144 72.007C220.266 67.8434 220.353 67.027 220.353 58.7812C220.353 50.5355 220.266 49.7191 219.144 45.5555C214.007 26.3699 200.368 11.4705 181.505 4.36777C176.282 2.40839 169.419 0.857216 164.671 0.571472C162.556 0.449013 160.311 0.326553 159.707 0.244911C159.103 0.204094 156.556 0.285736 154.053 0.449013ZM170.584 14.2055C189.792 19.1039 203.691 33.4318 206.756 51.5152C207.533 56.0463 207.101 65.8432 205.979 69.8844C201.188 86.7023 188.584 98.6219 170.584 103.398C167.692 104.133 166.138 104.255 158.844 104.255C151.549 104.255 149.995 104.133 147.103 103.398C129.104 98.6219 116.716 86.9064 111.665 69.8844C110.888 67.1494 110.759 65.6799 110.759 58.7812C110.759 50.0457 111.147 48.0455 113.953 41.351C119.91 27.3496 133.42 16.8588 149.607 13.6748C154.139 12.7767 166.225 13.1033 170.584 14.2055Z" fill="#102DA9"/>
<path d="M176.757 40.0447C176.282 40.2896 168.944 47.0658 160.484 55.0665L145.031 69.5986L139.981 64.8226C137.175 62.2509 134.456 59.8833 133.938 59.6384C132.427 58.9037 129.449 59.1078 127.852 60.0058C125.564 61.3121 124.658 63.0673 124.874 65.8431L125.003 68.2107L132.988 75.7624C137.348 79.9261 141.449 83.5999 142.096 83.9265C143.477 84.6204 146.456 84.6613 147.751 84.049C149.089 83.3958 184.656 49.8415 185.433 48.4945C186.9 45.8412 185.735 42.0449 182.929 40.4121C181.375 39.514 178.181 39.3507 176.757 40.0447Z" fill="#102DA9"/>
<path d="M5.74083 26.5332C-0.388469 27.8803 -1.5539 35.1463 3.88477 38.1262C5.26602 38.9018 6.30196 38.9835 15.8412 39.1876C25.5963 39.3917 26.3301 39.4325 27.4955 40.2489C28.143 40.7387 29.0494 41.6776 29.4811 42.3307C29.8695 43.0247 35.3514 65.3125 41.8691 93.1112C52.1422 136.748 53.7393 143.034 55.0774 145.647C58.142 151.607 64.0986 155.566 71.2207 156.383C73.5947 156.628 93.3207 156.75 127.118 156.668C176.412 156.546 179.476 156.505 181.721 155.77C187.116 154.097 191.778 150.341 194.238 145.688C195.663 143.034 198.986 132.217 198.986 130.258C198.986 126.053 194.54 123.114 190.267 124.461C187.462 125.359 186.641 126.665 184.483 133.646C182.368 140.708 181.893 141.647 179.778 142.871C178.397 143.688 177.793 143.688 124.658 143.688H70.9186L69.4941 142.749C68.674 142.259 67.6813 141.279 67.2496 140.626C66.6453 139.646 49.207 67.2719 49.207 65.7208C49.207 65.5167 55.1637 65.3126 63.3648 65.2309C76.7025 65.1085 77.5658 65.0676 78.9902 64.2512C83.6088 61.6795 83.6088 55.8831 78.9902 53.3114C77.5658 52.495 76.7025 52.4542 61.6815 52.3317L45.8834 52.2092L44.6748 46.821C43.3367 40.7795 42.2576 37.718 40.6606 35.3096C37.6391 30.8194 31.6824 27.2272 25.8984 26.5332C22.1 26.0842 7.72637 26.0842 5.74083 26.5332Z" fill="#102DA9"/>
<path d="M83.0908 171.2C81.6664 171.69 79.724 172.588 78.7744 173.16C76.6162 174.466 72.8609 178.181 71.8682 180.018C68.6309 185.937 68.6309 192.876 71.8682 198.836C73.0336 200.918 77.1342 204.795 79.5945 206.102C85.9396 209.49 94.0545 209.449 100.313 205.979C102.471 204.795 106.658 200.713 107.694 198.836C111.061 192.631 110.932 185.243 107.306 179.446C106.054 177.405 101.738 173.445 99.7521 172.466C94.6156 169.976 87.9252 169.445 83.0908 171.2ZM93.5797 183.691C95.6516 184.916 96.6875 186.753 96.6875 189.406C96.6875 192.06 95.6516 193.896 93.5797 195.121C91.6373 196.223 87.9252 196.223 85.9828 195.121C83.9109 193.896 82.875 192.06 82.875 189.406C82.875 186.753 83.9109 184.916 85.9828 183.691C87.9252 182.589 91.6373 182.589 93.5797 183.691Z" fill="#102DA9"/>
<path d="M152.153 171.2C150.729 171.69 148.787 172.588 147.837 173.16C145.679 174.466 141.923 178.181 140.931 180.018C137.693 185.937 137.693 192.876 140.931 198.836C142.096 200.918 146.197 204.795 148.657 206.102C155.002 209.49 163.117 209.449 169.376 205.979C171.534 204.795 175.721 200.713 176.757 198.836C180.124 192.631 179.994 185.243 176.368 179.446C175.117 177.405 170.8 173.445 168.815 172.466C163.678 169.976 156.988 169.445 152.153 171.2ZM162.642 183.691C164.714 184.916 165.75 186.753 165.75 189.406C165.75 192.06 164.714 193.896 162.642 195.121C160.7 196.223 156.988 196.223 155.045 195.121C152.973 193.896 151.938 192.06 151.938 189.406C151.938 186.753 152.973 184.916 155.045 183.691C156.988 182.589 160.7 182.589 162.642 183.691Z" fill="#102DA9"/>
</svg>
